<svg xmlns="http://www.w3.org/2000/svg" viewBox="0 0 100 100"><defs><style>.a{fill:#ecf0f1;}.b{fill:#bdc3c7;}.c{fill:#e5bf88;}.d{fill:#33495f;}.e{fill:#2b3e51;}.f{fill:#bfa072;}.g{fill:#227fbb;}.h{fill:#e94b35;}</style></defs><title>icone_cookie</title><path class="a" d="M75.09,72.46a1.93,1.93,0,0,1-1.93,1.93H24.93A1.93,1.93,0,0,1,23,72.46V8A1.93,1.93,0,0,1,24.93,6.1H62a5.37,5.37,0,0,1,3.29,1.36l8.46,8.46a5.37,5.37,0,0,1,1.36,3.29Z"/><path class="b" d="M73.72,15.92,65.26,7.46a4.69,4.69,0,0,0-1.36-.89v8.79a1.93,1.93,0,0,0,1.93,1.93h8.79A4.69,4.69,0,0,0,73.72,15.92Z"/><path class="c" d="M81,62.85l-4-8.33V46.22s.45-3.28-2.51-3.28-2.31,2.89-2.31,2.89l-.06,10.8S64.22,62,69.28,74.39H57.53L64,81.14H79.65Z"/><rect class="a" x="61.97" y="79.79" width="19.1" height="3.28"/><path class="d" d="M60.23,93V83.07H81.8A49.17,49.17,0,0,1,60.23,93Z"/><path class="e" d="M71.62,89.36A49,49,0,0,1,60.23,93V83.07H71.62Z"/><polygon class="f" points="69.28 74.39 61.97 79 57.53 74.39 69.28 74.39"/><path class="b" d="M27.05,23.85H71a.48.48,0,0,0,0-1h-44a.48.48,0,0,0,0,1Z"/><path class="b" d="M27.05,26.16H71a.48.48,0,0,0,0-1h-44a.48.48,0,0,0,0,1Z"/><path class="b" d="M27,28.28H64.38a.48.48,0,0,0,0-1H27a.48.48,0,0,0,0,1Z"/><path class="b" d="M27,33.69h40.7a.48.48,0,0,0,0-1H27a.48.48,0,0,0,0,1Z"/><path class="b" d="M27,39.09H66.5a.48.48,0,0,0,0-1H27a.48.48,0,1,0,0,1Z"/><path class="b" d="M27,44.68H59.37a.48.48,0,1,0,0-1H27a.48.48,0,0,0,0,1Z"/><path class="b" d="M27,47.19H59.37a.48.48,0,1,0,0-1H27a.48.48,0,0,0,0,1Z"/><path class="b" d="M27,49.31H61.68a.48.48,0,0,0,0-1H27a.48.48,0,0,0,0,1Z"/><path class="b" d="M27,53.94H61.68a.48.48,0,0,0,0-1H27a.48.48,0,1,0,0,1Z"/><rect class="g" x="26.48" y="13.62" width="30.86" height="3.67"/><path class="b" d="M27,36.58h40.7a.48.48,0,0,0,0-1H27a.48.48,0,0,0,0,1Z"/><path class="b" d="M27,36.58h40.7a.48.48,0,0,0,0-1H27a.48.48,0,0,0,0,1Z"/><circle class="h" cx="31.29" cy="64.53" r="2.81"/><path class="h" d="M37.11,63.07c-.08-.31.33-.8.2-1.11s-.76-.35-.94-.62.06-.87-.15-1.11-.83-.09-1.08-.3-.21-.84-.49-1-.82.17-1.12,0-.46-.74-.78-.81-.72.41-1.05.39S31,58,30.71,58s-.56.62-.88.7-.8-.33-1.11-.2-.35.76-.62.94-.87-.06-1.11.15-.09.83-.3,1.08-.84.21-1,.49.17.82,0,1.12-.74.46-.81.78.41.72.39,1.05-.56.66-.53,1,.62.56.7.88-.33.8-.2,1.11.76.35.94.62-.06.87.15,1.11.83.09,1.08.3.21.84.49,1,.82-.17,1.12,0,.46.74.78.81.72-.41,1.05-.39.66.56,1,.53.56-.62.88-.7.8.33,1.11.2.35-.76.62-.94.87.06,1.11-.15.09-.83.3-1.08.84-.21,1-.49-.17-.82,0-1.12.74-.46.81-.78-.41-.72-.39-1.05.56-.66.53-1S37.19,63.39,37.11,63.07Zm-3.73,6.36a5.33,5.33,0,1,1,2.81-7A5.33,5.33,0,0,1,33.38,69.44Z"/><path class="h" d="M32.88,68.31a4,4,0,0,1-3.35-.06,4.13,4.13,0,0,1-2.28-4.39,4.26,4.26,0,0,1,2.46-3.11,3.79,3.79,0,0,1,1.13-.29,4.2,4.2,0,0,1,4.22,2.43h0v0a4.15,4.15,0,0,1-.7,4.33,4.4,4.4,0,0,1-1.5,1.05Zm-3-7.13a3.71,3.71,0,0,0-1.91,2A3.5,3.5,0,0,0,28,66a3.63,3.63,0,0,0,4.69,1.93l0,0a3.63,3.63,0,0,0-2.81-6.7Z"/><path class="h" d="M33.62,68.72l0-.07a4.7,4.7,0,0,0,.81-.57l.05.06A4.78,4.78,0,0,1,33.62,68.72Zm-.92.39a4.79,4.79,0,0,1-1,.19v-.08a4.69,4.69,0,0,0,1-.19Zm2.43-1.7-.07,0a4.72,4.72,0,0,0,.51-.85l.08,0A4.82,4.82,0,0,1,35.12,67.41Zm-4.41,1.88a4.82,4.82,0,0,1-1-.23l0-.08a4.71,4.71,0,0,0,1,.22ZM36,65.6l-.08,0a4.71,4.71,0,0,0,.12-1h.08A4.83,4.83,0,0,1,36,65.6Zm-7.14,3A4.79,4.79,0,0,1,28,68l.06-.06a4.72,4.72,0,0,0,.79.59Zm7.17-5-.08,0a4.32,4.32,0,0,0-.29-.94l.08,0A4.4,4.4,0,0,1,36,63.62Zm-8.63,3.67a4.84,4.84,0,0,1-.49-.88l.08,0a4.74,4.74,0,0,0,.48.86Zm7.78-5.46a4.68,4.68,0,0,0-.65-.74l.06-.06a4.78,4.78,0,0,1,.66.76Zm-8.48,3.61-.08,0a4.75,4.75,0,0,1-.09-1h.08A4.65,4.65,0,0,0,26.66,65.44Zm7-4.95a4.73,4.73,0,0,0-.89-.42l0-.08a4.83,4.83,0,0,1,.91.42Zm-7,3-.08,0a4.84,4.84,0,0,1,.33-.95l.08,0A4.71,4.71,0,0,0,26.7,63.48Zm5.16-3.62a4.68,4.68,0,0,0-1,0v-.08a4.8,4.8,0,0,1,1,0ZM27.52,61.7l-.07,0a4.76,4.76,0,0,1,.68-.73l.05.06A4.7,4.7,0,0,0,27.52,61.7ZM29.91,60a4.82,4.82,0,0,0-.91.39l0-.07a4.84,4.84,0,0,1,.92-.39Z"/><path class="g" d="M53.14,73.42l.12-.2c.85-1.42,3.28-2.39,5.36-3.05a7.89,7.89,0,0,0,1.91-2.41,2,2,0,0,0,.23-1.61c0-.05-.07-.06-.09-.05s-.32.23-.55.79l-.08.2L60,66.87c-.05-.18-.1-.37-.14-.55a7,7,0,0,0-.29-1,2.16,2.16,0,0,0-.73,1.19,3.2,3.2,0,0,1-.51,1l-.08.1,0-.12a3.47,3.47,0,0,1-.16-.87,2.81,2.81,0,0,0-.26-1.08,2.14,2.14,0,0,0-.53,1.36c0,.22,0,.43,0,.58s0,.1,0,.13h-.15a3.74,3.74,0,0,1,0-.73,2,2,0,0,0-.25-1.09.19.19,0,0,0-.14-.06.32.32,0,0,0-.25.11A1.86,1.86,0,0,0,56.19,67c0,.37,0,.86,0,1h-.15c0-.19,0-.17,0-.29s0-.48,0-.76a2.11,2.11,0,0,0-.74-1.67,3.26,3.26,0,0,0-.39,2.22,5.94,5.94,0,0,1,0,1.13l-.07.39-.08-.39c-.12-.56-.21-1.13-.29-1.67a13.17,13.17,0,0,0-.74-3.16c.18,1.38.45,3.56-.4,4.48a1.15,1.15,0,0,1-1.42.32.75.75,0,0,1-.35-.94l.15,0a.59.59,0,0,0,.28.76,1,1,0,0,0,1.23-.29c.83-.9.53-3.14.35-4.48l-.05-.39-.06-.44.2.4a11.87,11.87,0,0,1,1,3.67c.05.35.11.71.17,1.07,0-.16,0-.33,0-.5a3.21,3.21,0,0,1,.47-2.38l0,0,.05,0a1.71,1.71,0,0,1,.77,1.19,1.14,1.14,0,0,1,.24-.57.48.48,0,0,1,.36-.15.34.34,0,0,1,.25.11,1.17,1.17,0,0,1,.24.61,1.65,1.65,0,0,1,.56-.94l.07,0,0,.07a2.73,2.73,0,0,1,.32,1.22,4.09,4.09,0,0,0,.11.69,3.68,3.68,0,0,0,.39-.86,2.14,2.14,0,0,1,.87-1.32l.07,0,0,.07A6.64,6.64,0,0,1,60,66.28l.08.33c.2-.42.4-.66.59-.68a.25.25,0,0,1,.24.12,2.09,2.09,0,0,1-.22,1.76A7.86,7.86,0,0,1,59,70.06l1.34-.4.52-.15a53.63,53.63,0,0,1,6.11-1.57l.24,0-.18.18a.46.46,0,0,1-.19.1.34.34,0,0,0-.13.06l-.07-.07a53.73,53.73,0,0,0-5.75,1.49l-.52.15c-.49.14-1.06.31-1.66.5a20.45,20.45,0,0,1-5.32,3Zm5.17-3c-1.86.61-3.9,1.47-4.77,2.66A20.59,20.59,0,0,0,58.31,70.43Z"/></svg>