<svg xmlns="http://www.w3.org/2000/svg" viewBox="0 0 100 100"><defs><style>.a{fill:#ffbf00;}.b{fill:#f79800;}.c{fill:#009af2;}.d{fill:#0d5784;}.e{fill:#07496b;}.f{fill:#ff5d49;}.g{fill:#ff9e5c;}.h{fill:#ffc197;}.i{fill:#ea2e1f;}</style></defs><title>icone_cookie</title><path class="a" d="M94.33,34.9A28.07,28.07,0,1,1,66.26,6.84,28.07,28.07,0,0,1,94.33,34.9Z"/><path class="b" d="M55.43,60.8a28.09,28.09,0,0,1-17-29.56A21.95,21.95,0,0,1,53.1,58.35a11.78,11.78,0,0,1,2.33,2.45Z"/><path class="c" d="M78.46,39.26a2.39,2.39,0,0,1-2.39-2.39,5.86,5.86,0,0,1,3.37-5.32,2.34,2.34,0,0,0,1.36-2.29,2.37,2.37,0,0,0-2.19-2.19,2.35,2.35,0,0,0-2.5,2.34,2.39,2.39,0,0,1-4.79,0,7.16,7.16,0,0,1,2.25-5.2,7.14,7.14,0,1,1,7.86,11.68,1.06,1.06,0,0,0-.58,1A2.39,2.39,0,0,1,78.46,39.26Z"/><path class="c" d="M78.46,47.53a2.39,2.39,0,0,1-2.39-2.39V45a2.39,2.39,0,1,1,4.79,0v.16A2.39,2.39,0,0,1,78.46,47.53Z"/><path class="b" d="M50.59,27H47.9a1.28,1.28,0,0,1,0-2.57h2.69a1.28,1.28,0,1,1,0,2.57Z"/><path class="b" d="M66.26,33.09H47.9a1.28,1.28,0,1,1,0-2.57H66.26a1.28,1.28,0,1,1,0,2.57Z"/><path class="b" d="M66.26,37.2H47.9a1.28,1.28,0,0,1,0-2.57H66.26a1.28,1.28,0,1,1,0,2.57Z"/><path class="b" d="M66.26,41.31H47.9a1.28,1.28,0,1,1,0-2.57H66.26a1.28,1.28,0,1,1,0,2.57Z"/><path class="b" d="M66.26,45.42H50a1.28,1.28,0,0,1,0-2.57H66.27a1.28,1.28,0,1,1,0,2.57Z"/><path class="b" d="M66.26,27H55.41a1.28,1.28,0,1,1,0-2.57H66.26a1.28,1.28,0,1,1,0,2.57Z"/><path class="d" d="M54.8,67.41a8.81,8.81,0,0,1-17,3.15,19.36,19.36,0,0,1-11.46,0A8.8,8.8,0,1,1,14.26,59.48a19.11,19.11,0,0,1-1.29-5,19.21,19.21,0,1,1,38.17,0,19.1,19.1,0,0,1-1.3,5.06,8.83,8.83,0,0,1,5,7.92Z"/><path class="e" d="M49.84,59.48a8.78,8.78,0,0,1,2.42,1.74A6.33,6.33,0,0,1,46.46,65a6.52,6.52,0,0,1-.79-.05,14.36,14.36,0,0,1-6.48,8,8.74,8.74,0,0,1-1.42-2.43,19.36,19.36,0,0,1-11.46,0A8.77,8.77,0,0,1,24.92,73a14.34,14.34,0,0,1-6.45-8,6.31,6.31,0,0,1-6.6-3.76,8.82,8.82,0,0,1,2.4-1.71Z"/><path class="f" d="M49.25,88.74v1.88A1.37,1.37,0,0,1,47.88,92H16.21a1.37,1.37,0,0,1-1.37-1.37V88.74a17.21,17.21,0,0,1,34.41,0Z"/><path class="g" d="M32.07,78.39h0a4.82,4.82,0,0,1-4.82-4.82V69.87h9.64v3.69A4.82,4.82,0,0,1,32.07,78.39Z"/><circle class="g" cx="17.66" cy="58.68" r="3.53"/><circle class="g" cx="46.46" cy="58.68" r="3.53"/><path class="h" d="M43.56,54.4c-8.12,1.83-13.27-1.08-13.27-1.08v2.13a.86.86,0,0,1-1,.85,17.93,17.93,0,0,1-8.71-4.16v8.32a11.49,11.49,0,1,0,23,.17V54.4h0Z"/><path class="e" d="M35.41,65.55a1.29,1.29,0,0,0-1.8-.25,2.37,2.37,0,0,1-3.13,0,1.29,1.29,0,1,0-1.55,2.05A5.09,5.09,0,0,0,32,68.46h0a5.09,5.09,0,0,0,3.1-1.11A1.29,1.29,0,0,0,35.41,65.55Z"/><path class="i" d="M21.87,86.82V92H19.3V86.82a1.29,1.29,0,0,1,2.57,0Z"/><path class="i" d="M44.84,86.82V92H42.27V86.82a1.29,1.29,0,0,1,2.57,0Z"/><path class="e" d="M27.36,61.87a1.28,1.28,0,0,1-1.28-1.28v-.3a1.28,1.28,0,1,1,2.57,0v.3A1.28,1.28,0,0,1,27.36,61.87Z"/><path class="e" d="M37.06,61.87a1.28,1.28,0,0,1-1.28-1.28v-.3a1.28,1.28,0,1,1,2.57,0v.3A1.28,1.28,0,0,1,37.06,61.87Z"/></svg>