<svg xmlns="http://www.w3.org/2000/svg" viewBox="0 0 100 100"><defs><style>.a{fill:#3abca7;}.b{fill:#fff;}.c{fill:#eddcc7;}.d{fill:#d75a4a;}.e{fill:#f29c21;}.f{fill:#d6c4b1;}.g{fill:#a34740;}.h{fill:#e18c25;}.i{fill:#5e5e5e;}</style></defs><title>icone_cookie</title><path class="a" d="M77.61,89.9H23.42A12.85,12.85,0,0,1,10.56,77V22.85A12.85,12.85,0,0,1,23.42,10H77.61A12.85,12.85,0,0,1,90.46,22.85V77A12.85,12.85,0,0,1,77.61,89.9Z"/><path class="b" d="M78.17,31.51H50.51a1.54,1.54,0,0,1,0-3.07H78.17a1.54,1.54,0,0,1,0,3.07Z"/><path class="b" d="M78.17,53H50.51a1.54,1.54,0,1,1,0-3.07H78.17a1.54,1.54,0,0,1,0,3.07Z"/><path class="b" d="M78.17,74.53H50.51a1.54,1.54,0,0,1,0-3.07H78.17a1.54,1.54,0,0,1,0,3.07Z"/><path class="b" d="M29.11,36.12a1.53,1.53,0,0,1-.92-.31l-7-5.27A1.54,1.54,0,1,1,23,28.09l5.87,4.4,9.6-11.2a1.54,1.54,0,0,1,2.33,2L30.28,35.58A1.54,1.54,0,0,1,29.11,36.12Z"/><path class="b" d="M29.11,57.63a1.53,1.53,0,0,1-.92-.31l-7-5.27A1.54,1.54,0,1,1,23,49.6L28.88,54l9.6-11.2a1.54,1.54,0,0,1,2.33,2L30.28,57.09A1.54,1.54,0,0,1,29.11,57.63Z"/><path class="b" d="M29.11,80.68a1.53,1.53,0,0,1-.92-.31l-7-5.27A1.54,1.54,0,1,1,23,72.64L28.88,77l9.6-11.2a1.54,1.54,0,0,1,2.33,2L30.28,80.14A1.54,1.54,0,0,1,29.11,80.68Z"/><polygon class="c" points="61.02 79.89 61 79.9 57.95 91.11 65.09 83.97 61.02 79.89"/><path class="d" d="M90.59,58.46l-1.92-1.92a3.05,3.05,0,0,0-4.31,0L78.86,62l4.07,4.07Z"/><rect class="e" x="59.36" y="70.13" width="25.23" height="5.76" transform="translate(-30.54 72.28) rotate(-45)"/><polygon class="f" points="69.7 88.6 69.71 88.58 65.09 83.97 57.95 91.11 57.74 91.86 69.7 88.6"/><path class="g" d="M87.55,70.74l5.5-5.5a3.05,3.05,0,0,0,0-4.31l-2.46-2.46-7.66,7.66Z"/><rect class="h" x="63.7" y="74.09" width="25.23" height="6.53" transform="translate(-32.34 76.62) rotate(-45)"/><path class="i" d="M56.66,94.48a1.54,1.54,0,0,1-1.09-2.62L59,88.46a1.54,1.54,0,0,1,2.17,2.17L57.74,94A1.53,1.53,0,0,1,56.66,94.48Z"/></svg>