<svg xmlns="http://www.w3.org/2000/svg" viewBox="0 0 100 100"><defs><style>.a{fill:#e5bfa3;}.b{fill:#ffd15c;}.c{fill:#ffdc8d;}.d{fill:#ff525d;}.e{fill:#f9d6b9;}.f{fill:#5c5e70;}</style></defs><title>icone_cookie</title><path class="a" d="M55.34,26.57l16.08,20L60.05,62,54.9,59.53s1.33-13.89-.8-19.36l-2.88-7.38Z"/><path class="a" d="M40.85,16.48l-1.5-2.27A5.72,5.72,0,1,1,48.88,7.9l1.47,2.22L57.7,21.21"/><path class="a" d="M64.42,23.5,57,12.35a5.72,5.72,0,0,0-6.69-2.23l-3.6,3.7,10,15.8,7.69-6.12"/><path class="b" d="M46,41A13.58,13.58,0,1,1,32.38,27.41,13.55,13.55,0,0,1,46,41Z"/><path class="c" d="M43.54,41A11.15,11.15,0,1,1,32.38,29.83,11.13,11.13,0,0,1,43.54,41Z"/><path class="d" d="M39.75,48.49a6,6,0,0,1-.07.93,11.16,11.16,0,0,1-14.34.22,6,6,0,0,1-.11-1.15,1.24,1.24,0,0,1,.68-1.1l1.83-.93a10.07,10.07,0,0,1,2.51-.88c.26-.05.52-.1.78-.13l.85-.11.61-.08.44.06.16,0h0l.85.11c.26,0,.52.08.78.13a10.06,10.06,0,0,1,2.51.88l1.83.93A1.24,1.24,0,0,1,39.75,48.49Z"/><path class="a" d="M34.74,43.24v2.41a2.24,2.24,0,0,1-2.24,2.24h0a2.24,2.24,0,0,1-2.24-2.24V43.24Z"/><circle class="a" cx="27.64" cy="39.3" r="1.39"/><circle class="a" cx="37.34" cy="39.3" r="1.39"/><path class="e" d="M37.49,35.34l-10-.53v5.58a5,5,0,0,0,5,5h0a5,5,0,0,0,5-5Z"/><path class="f" d="M38.1,35.15v2.52a.74.74,0,0,1-.76.74.75.75,0,0,1-.72-.76v-.38a1.09,1.09,0,0,0-1.09-1.09,2.06,2.06,0,0,0-1.29.45,2.77,2.77,0,0,1-3.48,0l-.2-.14h0a2.05,2.05,0,0,0-.41-.2,2.09,2.09,0,0,0-.69-.12,1.09,1.09,0,0,0-1.09,1.09v.4a.74.74,0,1,1-1.48,0V35.15a4,4,0,0,1,4-4h3.23A4,4,0,0,1,38.1,35.15Z"/><path class="e" d="M85.71,85.31A45.07,45.07,0,0,1,61.19,95.67L55.63,79.54A36.84,36.84,0,0,1,40.73,71l-9.33-8.78a4.69,4.69,0,0,1,3.13-8.1h.09a10.67,10.67,0,0,1,6.45,2.17l4.25,3.21a8,8,0,0,0,9.47.09l5-3.82a6,6,0,0,0,1.92-7.08l-6-14.56L33,27.41a6.33,6.33,0,0,1,4-12L60.46,22a21.4,21.4,0,0,1,10.21,6.23L82,45.75a10.63,10.63,0,0,1,1.69,5.6L84,73.43A46.19,46.19,0,0,0,85.71,85.31Z"/><path class="a" d="M67,94.71a45.21,45.21,0,0,1-5.77,1L55.63,79.54A36.84,36.84,0,0,1,40.73,71l-9.33-8.78a4.69,4.69,0,0,1,3.13-8.1h.09a10.62,10.62,0,0,1,2.91.4c-3.09.79-5.41,2.63-3.1,4.81L46.83,71a36.84,36.84,0,0,0,14.89,8.53Z"/><path class="a" d="M55.74,34.12,33,27.41a6.33,6.33,0,0,1-1.56-10.86c-.55,4,.76,7.32,3.71,8.24s18.67,5.36,18.67,5.36Z"/></svg>