<svg xmlns="http://www.w3.org/2000/svg" viewBox="0 0 100 100"><defs><style>.a{fill:#17afdc;}.b{fill:gold;}.c{fill:#f4393d;}.d{fill:#48494f;}.e{fill:#d6d6e5;}.f{fill:#5358a1;}.g{fill:#fedbab;}.h{fill:#feb756;}</style></defs><title>icone_cookie</title><circle class="a" cx="67.21" cy="53.45" r="10.28"/><path class="b" d="M84.54,64l-2.46-1.6c.53-.81,1-1.65,1.49-2.5l2.58,1.39c-.5.92-1,1.84-1.61,2.71Z"/><path class="b" d="M19,61.47c-.5-.92-1-1.87-1.4-2.83l2.68-1.19c.39.88.82,1.76,1.29,2.61Z"/><path class="b" d="M87.53,58.42l-2.69-1.17c.39-.89.74-1.81,1.05-2.72l2.78.95c-.34,1-.72,2-1.14,2.94Z"/><path class="b" d="M16.47,55.71c-.34-1-.65-2-.91-3L18.41,52c.24.94.52,1.87.84,2.78Z"/><path class="b" d="M89.57,52.46l-2.85-.71c.23-.94.43-1.9.59-2.85l2.9.47C90,50.4,89.82,51.44,89.57,52.46Z"/><path class="b" d="M14.91,49.61c-.17-1-.31-2.08-.4-3.13l2.92-.25c.08,1,.21,1.94.37,2.89Z"/><path class="b" d="M90.58,46.24,87.65,46c.07-.94.11-1.89.11-2.83l2.94-.08v.08c0,1,0,2.05-.12,3.07Z"/><path class="b" d="M17.3,43.33H14.36v-.16c0-1,0-2.11.13-3.15l2.93.24c-.08,1-.12,1.94-.12,2.91v.16Z"/><path class="b" d="M87.64,40.19c-.08-1-.2-1.94-.36-2.89l2.9-.49c.17,1,.3,2.08.39,3.13Z"/><path class="b" d="M17.77,37.37l-2.9-.48c.17-1,.39-2.07.64-3.09l2.85.72C18.13,35.46,17.93,36.42,17.77,37.37Z"/><path class="b" d="M86.68,34.45c-.24-.94-.52-1.88-.84-2.79l2.78-1c.34,1,.64,2,.9,3Z"/><path class="b" d="M19.2,31.74l-2.78-1c.34-1,.72-2,1.15-2.94L20.25,29C19.86,29.91,19.51,30.83,19.2,31.74Z"/><path class="b" d="M84.78,29c-.39-.88-.82-1.76-1.28-2.61l2.58-1.4c.5.92,1,1.87,1.39,2.83Z"/><path class="b" d="M21.53,26.41,19,25c.5-.92,1-1.83,1.62-2.71L23,23.91C22.5,24.72,22,25.56,21.53,26.41Z"/><path class="b" d="M82,23.85c-.53-.81-1.1-1.6-1.7-2.36l2.31-1.81c.65.83,1.27,1.69,1.84,2.56Z"/><path class="b" d="M24.72,21.54l-2.32-1.8c.64-.82,1.33-1.63,2-2.41l2.16,2C25.94,20,25.31,20.78,24.72,21.54Z"/><path class="b" d="M78.42,19.27c-.66-.71-1.35-1.4-2.06-2.06l2-2.16c.77.71,1.52,1.45,2.23,2.23Z"/><path class="b" d="M28.66,17.26l-2-2.16c.77-.71,1.58-1.4,2.4-2l1.8,2.32C30.12,16,29.37,16.6,28.66,17.26Z"/><path class="b" d="M74.13,15.33c-.76-.59-1.56-1.16-2.37-1.69l1.6-2.46c.88.57,1.74,1.19,2.57,1.83Z"/><path class="b" d="M33.25,13.68l-1.61-2.46c.88-.57,1.78-1.12,2.71-1.62l1.4,2.58c-.85.46-1.69,1-2.5,1.49Z"/><path class="b" d="M69.26,12.15c-.85-.46-1.73-.89-2.62-1.28l1.18-2.69c1,.42,1.91.89,2.84,1.38Z"/><path class="b" d="M38.36,10.91,37.17,8.22c1-.42,1.94-.81,2.94-1.15l1,2.78C40.15,10.16,39.24,10.52,38.36,10.91Z"/><path class="b" d="M63.93,9.82C63,9.51,62.08,9.23,61.14,9l.71-2.85c1,.25,2,.56,3,.89Z"/><path class="b" d="M43.85,9l-.72-2.85c1-.26,2.05-.47,3.09-.65l.48,2.9C45.74,8.58,44.79,8.78,43.85,9Z"/><path class="b" d="M58.29,8.41c-1-.16-1.92-.28-2.89-.35l.24-2.93c1,.08,2.1.21,3.13.38Z"/><path class="b" d="M49.59,8.06l-.24-2.93c1-.09,2.1-.13,3.15-.13V7.94c-1,0-1.95,0-2.91.12Z"/><path class="c" d="M46.46,47.71a5.84,5.84,0,0,0-8,0l-.57.55-.57-.55a5.84,5.84,0,0,0-8,0A5.32,5.32,0,0,0,29,55.23l.21.21,8.61,8.28,8.61-8.28a5.32,5.32,0,0,0,.21-7.52l-.21-.21Z"/><path class="d" d="M62.81,49h2.94V52H62.81Z"/><path class="d" d="M68.68,49h2.94V52H68.68Z"/><path class="d" d="M67.21,58.69a5.61,5.61,0,0,1-4.27-2.21L65.2,54.6a2.35,2.35,0,0,0,4,0l2.26,1.88A5.61,5.61,0,0,1,67.21,58.69Z"/><path class="e" d="M65.75,27.76a2.31,2.31,0,0,0-2.4-2.2,2.21,2.21,0,1,0,0-4.4h-8V17.48a2.41,2.41,0,0,0-4.8,0v3.67H39.32V34.36h24a2.21,2.21,0,1,0,0-4.4A2.31,2.31,0,0,0,65.75,27.76Z"/><path class="f" d="M39.32,21.15h5.87V34.36H39.32Z"/><path class="g" d="M76.48,71.11,48.13,75.65l-.39.24-7-4.78H29V85.74h4.4l13.5,6.84a5.23,5.23,0,0,0,5.11-.37L77.62,75.45a2.34,2.34,0,0,0-1.14-4.34Z"/><path class="h" d="M77.62,73.94,52.05,90.7a5.23,5.23,0,0,1-5.11.37l-13.5-6.33H29v1h4.4l13.5,6.84a5.23,5.23,0,0,0,5.11-.37L77.62,75.45a2.31,2.31,0,0,0,1-2.74,2.26,2.26,0,0,1-1,1.22Z"/><path class="f" d="M20.24,69.6H29V87.21H20.24Z"/><path class="h" d="M50.78,77.72,45.19,74l5,4.39a2.43,2.43,0,0,1,.64,3.38l-.05.07a2.36,2.36,0,0,1-3.23.56l-6.78-4.07v1.54l5.92,3.95a3.66,3.66,0,0,0,4.07-6.1Z"/></svg>