<svg xmlns="http://www.w3.org/2000/svg" viewBox="0 0 100 100"><defs><style>.a{fill:#183651;}.b{fill:#e1e6e7;}.c{fill:#fbbd5e;}.d{fill:#f06151;}.e{fill:#2ca0da;}.f{fill:#4fbf9f;}.g{fill:#fff;}</style></defs><title>icone_cookie</title><path class="a" d="M47,87.33v-3a17.9,17.9,0,0,0,2.81-.15l.15,3A18.86,18.86,0,0,1,47,87.33Zm-3,0a22.09,22.09,0,0,1-3.11-.3l.44-3a18.12,18.12,0,0,0,2.81.3Zm9.17-.44-.44-3a19,19,0,0,0,2.81-.59l.59,3A20.91,20.91,0,0,1,53.17,86.88Zm-15.24-.44c-1-.3-1.92-.44-3-.74l.89-2.81a15.6,15.6,0,0,0,2.81.74Zm21.16-.89-.89-2.81,2.66-.89,1,2.81C61,85,60.12,85.26,59.09,85.55ZM32,84.66c-.89-.44-1.92-.74-2.81-1.18l1.33-2.66c.89.44,1.78.74,2.66,1.18Zm32.84-1.33-1.33-2.66c.89-.44,1.63-.89,2.52-1.33l1.48,2.52A23.94,23.94,0,0,1,64.86,83.33ZM26.54,82a25.72,25.72,0,0,1-2.66-1.63l1.63-2.52a20.71,20.71,0,0,0,2.37,1.48ZM70,80.23l-1.63-2.37c.74-.59,1.63-1,2.22-1.63l1.92,2.37C71.81,79,70.92,79.63,70,80.23ZM21.36,78.45A29.61,29.61,0,0,1,19,76.38l2.07-2.22c.74.59,1.48,1.33,2.22,1.92Zm53.56-2.07-2.07-2.07a27.36,27.36,0,0,0,2.07-2.07l2.22,2.07A28.43,28.43,0,0,1,74.92,76.38Zm-58-2.07c-.74-.74-1.33-1.48-2.07-2.37L17.22,70a25.74,25.74,0,0,0,1.92,2.22Zm62.14-2.37-2.37-1.78a21.16,21.16,0,0,0,1.63-2.22l2.52,1.63C80.24,70.31,79.65,71.2,79.06,71.94Zm-66-2.37a25.72,25.72,0,0,1-1.63-2.66L14,65.43c.44.89,1,1.63,1.48,2.37Zm69.39-2.66-2.52-1.48c.44-.89.89-1.63,1.33-2.52l2.66,1.33A23.88,23.88,0,0,1,82.46,66.91ZM10,64.25a22.78,22.78,0,0,1-1.18-2.81l2.66-1a20.92,20.92,0,0,0,1.18,2.66Zm75.16-3-2.81-1,.89-2.66,2.81.89A10.31,10.31,0,0,1,85.13,61.29ZM7.75,58.48a21.62,21.62,0,0,1-.74-3l2.81-.59a26.71,26.71,0,0,0,.74,2.81Zm79.3-3-2.81-.59c.15-.89.44-1.92.59-2.81l3,.44A9.66,9.66,0,0,0,87,55.52Zm-80.63-3L6,49.45l3-.15a18.14,18.14,0,0,0,.3,2.81Zm81.52-3.11-3-.15c0-.89.15-1.92.15-2.81v-.15h3v.15A18.86,18.86,0,0,0,87.94,49.45Zm-81.37-3H6a18.86,18.86,0,0,1,.15-3l3,.15c0,.89-.15,1.78-.15,2.81ZM85,43.24c-.15-.89-.15-1.92-.3-2.81l3-.44a22.06,22.06,0,0,1,.3,3.11ZM9.23,40.72l-3-.44a17.45,17.45,0,0,1,.59-3l3,.59A24.07,24.07,0,0,0,9.23,40.72Zm74.86-3.11a26.71,26.71,0,0,0-.74-2.81l2.81-.89a21.62,21.62,0,0,1,.74,3ZM10.56,35.25l-2.81-.89a23.47,23.47,0,0,1,1-3l2.81,1C11.15,33.47,10.86,34.36,10.56,35.25Zm71.75-3a20.92,20.92,0,0,0-1.18-2.66l2.66-1.33A22.78,22.78,0,0,1,85,31.11ZM12.63,29.92,10,28.59a23.93,23.93,0,0,1,1.48-2.66L14,27.41A8.22,8.22,0,0,0,12.63,29.92ZM79.8,27.11c-.44-.89-1-1.63-1.48-2.37l2.37-1.63c.59.89,1.18,1.78,1.63,2.52ZM15.44,25l-2.52-1.63c.59-.89,1.18-1.63,1.78-2.52l2.37,1.78A13.42,13.42,0,0,0,15.44,25Zm61.25-2.52a25.74,25.74,0,0,0-1.92-2.22L77,18.24c.74.74,1.33,1.48,2.07,2.37ZM19,20.46l-2.22-2.07L19,16.17l2.07,2.22Zm53.7-2.22c-.74-.59-1.48-1.33-2.22-1.92l1.78-2.37,2.37,1.92ZM23.14,16.61l-1.92-2.37c.74-.59,1.63-1.18,2.52-1.78l1.63,2.37Zm45.12-1.78a20.71,20.71,0,0,0-2.37-1.48l1.48-2.52A25.72,25.72,0,0,1,70,12.47ZM27.87,13.35l-1.48-2.52c.89-.44,1.78-1,2.66-1.48L30.39,12C29.5,12.47,28.61,12.91,27.87,13.35Zm35.51-1.48c-.89-.3-1.78-.74-2.66-1l1-2.81c.89.44,1.92.74,2.81,1.18ZM32.9,11l-1-2.81a17.41,17.41,0,0,1,3-1L35.71,10A15.78,15.78,0,0,0,32.9,11Zm25.15-1a15.6,15.6,0,0,0-2.81-.74l.59-3a21.65,21.65,0,0,1,3,.74ZM38.38,9.21,37.64,6.4a26.16,26.16,0,0,1,3-.59l.44,3A16.67,16.67,0,0,0,38.38,9.21Zm14.05-.59a18.12,18.12,0,0,0-2.81-.3l.15-3a22.09,22.09,0,0,1,3.11.3ZM44,8.32l-.3-3a21.84,21.84,0,0,1,3.11-.15v3A17.9,17.9,0,0,1,44,8.32Z"/><path class="b" d="M37.54,32.91h0A32.74,32.74,0,0,0,4.91,65.54,32.26,32.26,0,0,0,14.48,88.6L37.54,65.54V32.91Z"/><path class="c" d="M60.44,88.43A32.26,32.26,0,0,0,70,65.37H37.54Z"/><path class="d" d="M70,65.37h0A32.74,32.74,0,0,0,37.37,32.73V65.37Z"/><path class="e" d="M37.54,98a32.26,32.26,0,0,0,23.06-9.57L37.54,65.37,14.48,88.43A32,32,0,0,0,37.54,98Z"/><path class="f" d="M90.43,3.44H47.57a5.35,5.35,0,0,0-5.35,5.35v29a5.35,5.35,0,0,0,5.35,5.35H70.63L88.38,56.26V43.09h2a5.35,5.35,0,0,0,5.35-5.35v-29A5.35,5.35,0,0,0,90.43,3.44Z"/><polygon class="g" points="72.7 37.17 48.14 37.17 48.14 9.36 89.86 9.36 89.86 37.17 82.46 37.17 82.46 44.42 72.7 37.17"/><rect class="d" x="55.24" y="13.35" width="5.62" height="17.61"/><rect class="c" x="66.19" y="17.79" width="5.62" height="13.31"/><rect class="f" x="77.14" y="23.56" width="5.62" height="7.55"/><rect class="b" x="52.13" y="31.11" width="33.58" height="2.37"/></svg>