<svg xmlns="http://www.w3.org/2000/svg" viewBox="0 0 100 100"><defs><style>.a{fill:#687f82;}.b{fill:#fff;}.c{fill:#4acfd9;}.d{fill:#0295aa;}.e{fill:#ffd1a9;}.f{fill:#ff8c29;}.g{fill:#f0353d;}</style></defs><title>icone_cookie</title><path class="a" d="M69.13,13.23A25.11,25.11,0,0,0,51.31,5.86h-.15A25.48,25.48,0,0,0,26,31.41v6.26A1.36,1.36,0,0,0,27.38,39h7.25A1.36,1.36,0,0,0,36,37.67V31.36A15.47,15.47,0,0,1,51.16,15.83,15.33,15.33,0,0,1,66.63,31.15v13a5.07,5.07,0,0,0,4.8,5.07h.18a5,5,0,0,0,5-5V31.15A25.11,25.11,0,0,0,69.13,13.23Z"/><path class="b" d="M73,38.31a1.36,1.36,0,0,1-1.36-1.36v-5.8a20.06,20.06,0,0,0-2-8.83A1.36,1.36,0,1,1,72,21.13a22.75,22.75,0,0,1,2.29,10v5.8A1.36,1.36,0,0,1,73,38.31Z"/><path class="b" d="M66.57,17.16a1.35,1.35,0,0,1-1-.4,20.17,20.17,0,0,0-14.3-5.91,1.36,1.36,0,1,1,0-2.72,22.89,22.89,0,0,1,16.22,6.7,1.36,1.36,0,0,1-1,2.32Z"/><path class="c" d="M77,42.84H25.57a6.8,6.8,0,0,0-6.8,6.8V92.78a1.36,1.36,0,0,0,1.36,1.36H82.49a1.36,1.36,0,0,0,1.36-1.36V49.64A6.8,6.8,0,0,0,77,42.84Z"/><path class="d" d="M25.57,42.84a6.8,6.8,0,0,0-6.8,6.8V92.78a1.36,1.36,0,0,0,1.36,1.36H51.31V42.84Z"/><path class="e" d="M53.77,66.26a9.33,9.33,0,1,0-4.91,0,14.43,14.43,0,0,0-12,14.2V87.7a1.36,1.36,0,0,0,1.36,1.36h26.1a1.36,1.36,0,0,0,1.36-1.36V80.45A14.43,14.43,0,0,0,53.77,66.26Z"/><path class="f" d="M42,57.25a9.35,9.35,0,0,0,6.88,9,14.43,14.43,0,0,0-12,14.2V87.7a1.36,1.36,0,0,0,1.36,1.36H51.31V47.92A9.35,9.35,0,0,0,42,57.25Z"/><path class="g" d="M16.35,38.81H10.71a1.36,1.36,0,1,1,0-2.72h5.64a1.36,1.36,0,1,1,0,2.72Z"/><path class="g" d="M17.92,34.19a1.35,1.35,0,0,1-1-.4l-3.59-3.59a1.36,1.36,0,0,1,1.92-1.92l3.59,3.59a1.36,1.36,0,0,1-1,2.32Z"/><path class="g" d="M14.3,47a1.36,1.36,0,0,1-1-2.32l3.59-3.59A1.36,1.36,0,0,1,18.85,43l-3.59,3.59A1.35,1.35,0,0,1,14.3,47Z"/></svg>